<?xml version="1.0" ?><!DOCTYPE svg  PUBLIC '-//W3C//DTD SVG 1.1//EN'  'http://www.w3.org/Graphics/SVG/1.1/DTD/svg11.dtd'><svg height="6.82666in" style="shape-rendering:geometricPrecision; text-rendering:geometricPrecision; image-rendering:optimizeQuality; fill-rule:evenodd; clip-rule:evenodd" viewBox="0 0 6.82666 6.82666" width="6.82666in" xml:space="preserve" xmlns="http://www.w3.org/2000/svg" xmlns:xlink="http://www.w3.org/1999/xlink"><defs><style type="text/css">
   <![CDATA[
    .fil1 {fill:#2D7331}
    .fil0 {fill:#388E3C}
    .fil2 {fill:white}
   ]]>
  </style></defs><g id="Layer_x0020_1"><path class="fil0" d="M6.82667 3.41337c0,1.88508 -1.52822,3.41329 -3.41331,3.41329 -1.88515,0 -3.41336,-1.52821 -3.41336,-3.41328 0,-1.88517 1.52821,-3.41338 3.41336,-3.41338 1.88509,0 3.41331,1.52821 3.41331,3.41338z"/><path class="fil1" d="M6.35917 3.41332c0,1.62687 -1.31896,2.94584 -2.94583,2.94584 -1.62688,0 -2.94583,-1.31897 -2.94583,-2.94584 0,-1.62687 1.31896,-2.94583 2.94583,-2.94583 1.62687,0 2.94583,1.31895 2.94583,2.94583z"/><path class="fil2" d="M1.42948 2.88059l1.13868 0c-0.444346,0.732165 0.0645551,1.69549 0.983043,1.60583 0.561067,-0.0546614 1.0744,-0.657634 0.846705,-1.34305 -0.0142402,-0.043315 -0.0448386,-0.0906181 -0.0681024,-0.136256 -0.0220394,-0.043311 -0.0592953,-0.0941811 -0.0486024,-0.126531l1.12896 0 0 1.87843c-0.0378307,0.367409 -0.326843,0.656201 -0.700705,0.690957l-2.58885 0c-0.374583,-0.0386339 -0.65387,-0.350433 -0.690957,-0.681209 -0.000169291,-7.87402e-006 -0.000165354,-1.56206 -0.000169291,-1.88818z"/><path class="fil2" d="M3.52193 2.69571c0.152988,0.0183622 0.235173,0.0514291 0.311555,0.097315 0.175358,0.105268 0.340358,0.301587 0.369823,0.564449 0.059626,0.530614 -0.329669,0.89539 -0.77861,0.89539 -0.357685,-3.93701e-006 -0.79278,-0.255469 -0.788346,-0.788268 0.00409449,-0.485165 0.391146,-0.828343 0.885579,-0.768886zm-0.671484 0.924524c0.065185,0.268512 0.363228,0.47165 0.671484,0.428197 0.294807,-0.0414567 0.611508,-0.407732 0.438146,-0.817484 -0.0638976,-0.150744 -0.207976,-0.319921 -0.506157,-0.34061 -0.36622,-0.0254449 -0.707217,0.301894 -0.603472,0.729898z"/><path class="fil2" d="M1.6533 1.67381c0.107366,-0.107366 0.282996,-0.205807 0.476961,-0.223839l2.21879 0 0 1.01226 0.165472 0 0 -1.01226 0.102134 0 0 1.01226 0.165571 0 0 -1.00268c0.0366142,0.00700394 0.0725039,0.0165866 0.107039,0.0284961l0 0.974181 0.165469 0 0 -0.895539c0.0526457,0.0325157 0.0990906,0.0692126 0.137,0.107039 0.22011,0.22011 0.237831,0.598571 0.223819,1.08033l-1.236 0c-0.0501496,-0.0115748 -0.11035,-0.0735551 -0.155744,-0.107031 -0.166524,-0.122575 -0.380783,-0.189535 -0.598157,-0.191866l-0.00620079 0c-0.21739,0.00232283 -0.431634,0.0692913 -0.598071,0.191866 -0.0454724,0.0334764 -0.105594,0.0954567 -0.155748,0.107031l-1.23599 0c-0.00573228,-0.48652 0.00354331,-0.86013 0.223654,-1.08025zm0.169732 0.656508c0,0.0567402 0.0459724,0.102693 0.10263,0.102693l0.427618 -3.93701e-006c0.0565787,0 0.102528,-0.0459409 0.102528,-0.102689l0 -0.427449c0,-0.056748 -0.0459488,-0.10263 -0.102528,-0.10263l-0.427618 0c-0.0566575,0 -0.102622,0.0458819 -0.102622,0.10263l-7.87402e-006 0.427449z"/></g></svg>